<svg width="1437" height="1223" viewBox="0 0 1437 1223" fill="none" xmlns="http://www.w3.org/2000/svg">
<path d="M200.518 687.006L576.941 1064.16C655.077 1142.45 781.923 1142.45 860.059 1064.16L1236.48 687.006C1370.51 552.72 1370.51 335.093 1236.48 200.807C1102.33 66.3977 884.747 66.3977 750.6 200.807L718.5 232.97L686.4 200.807C552.253 66.3977 334.665 66.3977 200.518 200.807C66.494 335.093 66.4941 552.72 200.518 687.006Z" fill="white"/>
<path fill-rule="evenodd" clip-rule="evenodd" d="M506.161 1134.81L129.738 757.648C-43.2461 584.325 -43.2461 303.487 129.738 130.165C290.584 -30.9946 544.379 -42.5033 718.5 95.639C892.621 -42.5033 1146.42 -30.9946 1307.26 130.165C1480.25 303.487 1480.25 584.325 1307.26 757.648L930.839 1134.81C813.634 1252.24 623.365 1252.24 506.161 1134.81ZM756.75 194.795C891.316 66.4285 1104.37 68.4326 1236.48 200.807C1370.51 335.093 1370.51 552.72 1236.48 687.006L860.059 1064.16C781.923 1142.45 655.077 1142.45 576.941 1064.16L200.518 687.006C66.494 552.72 66.494 335.093 200.518 200.807C332.634 68.4324 545.684 66.4285 680.251 194.795C682.319 196.768 684.369 198.772 686.4 200.807L718.5 232.97L750.6 200.807C752.631 198.772 754.681 196.768 756.75 194.795Z" fill="white"/>
<g filter="url(#filter0_i_113_41)">
<path fill-rule="evenodd" clip-rule="evenodd" d="M576.941 1064.16L200.518 687.006C66.4943 552.72 66.4943 335.093 200.518 200.807C334.665 66.3977 552.253 66.3977 686.4 200.807L718.5 232.97L750.6 200.807C884.747 66.3977 1102.34 66.3977 1236.48 200.807C1370.51 335.093 1370.51 552.72 1236.48 687.006L860.059 1064.16C781.923 1142.45 655.077 1142.45 576.941 1064.16ZM377.987 361.711C338.935 322.658 338.935 259.342 377.987 220.289C417.04 181.237 480.356 181.237 519.408 220.289L718.518 419.399L917.628 220.289C956.68 181.237 1020 181.237 1059.05 220.289C1098.1 259.342 1098.1 322.658 1059.05 361.711L819.518 601.242V930.242C819.518 985.47 774.747 1030.24 719.518 1030.24C664.29 1030.24 619.518 985.47 619.518 930.242V603.242L377.987 361.711Z" fill="url(#paint0_radial_113_41)" fill-opacity="0.74"/>
</g>
<defs>
<filter id="filter0_i_113_41" x="100" y="100" width="1237" height="1022.88" filterUnits="userSpaceOnUse" color-interpolation-filters="sRGB">
<feFlood flood-opacity="0" result="BackgroundImageFix"/>
<feBlend mode="normal" in="SourceGraphic" in2="BackgroundImageFix" result="shape"/>
<feColorMatrix in="SourceAlpha" type="matrix" values="0 0 0 0 0 0 0 0 0 0 0 0 0 0 0 0 0 0 127 0" result="hardAlpha"/>
<feOffset/>
<feGaussianBlur stdDeviation="62"/>
<feComposite in2="hardAlpha" operator="arithmetic" k2="-1" k3="1"/>
<feColorMatrix type="matrix" values="0 0 0 0 0.625 0 0 0 0 0.0833333 0 0 0 0 0.473333 0 0 0 0.53 0"/>
<feBlend mode="normal" in2="shape" result="effect1_innerShadow_113_41"/>
</filter>
<radialGradient id="paint0_radial_113_41" cx="0" cy="0" r="1" gradientUnits="userSpaceOnUse" gradientTransform="translate(949.991 -1237.34) rotate(99.1893) scale(3751.72 4747.17)">
<stop offset="0.44607" stop-color="#FF86B1"/>
<stop offset="0.553413" stop-color="#FF4EF5"/>
<stop offset="0.669285" stop-color="#6D2AC1"/>
</radialGradient>
</defs>
</svg>
