<svg width="2329" height="1223" viewBox="0 0 2329 1223" fill="none" xmlns="http://www.w3.org/2000/svg">
<mask id="path-1-outside-1_113_2" maskUnits="userSpaceOnUse" x="0" y="0" width="2276" height="1223" fill="black">
<rect fill="white" width="2276" height="1223"/>
<path fill-rule="evenodd" clip-rule="evenodd" d="M576.941 1064.16L200.518 687.006C66.494 552.72 66.494 335.093 200.518 200.807C334.665 66.3977 552.253 66.3977 686.4 200.807L718.5 232.97L750.6 200.807C884.747 66.3977 1102.33 66.3977 1236.48 200.807C1298.18 262.629 1331.48 342.114 1336.37 423H2026C2108.84 423 2176 490.157 2176 573V873C2176 1011.07 2064.07 1123 1926 1123H742V1121.5C683.236 1128.42 621.992 1109.3 576.941 1064.16Z"/>
</mask>
<path fill-rule="evenodd" clip-rule="evenodd" d="M576.941 1064.16L200.518 687.006C66.494 552.72 66.494 335.093 200.518 200.807C334.665 66.3977 552.253 66.3977 686.4 200.807L718.5 232.97L750.6 200.807C884.747 66.3977 1102.33 66.3977 1236.48 200.807C1298.18 262.629 1331.48 342.114 1336.37 423H2026C2108.84 423 2176 490.157 2176 573V873C2176 1011.07 2064.07 1123 1926 1123H742V1121.5C683.236 1128.42 621.992 1109.3 576.941 1064.16Z" fill="white"/>
<path d="M200.518 687.006L129.738 757.648H129.738L200.518 687.006ZM576.941 1064.16L647.72 993.523L647.72 993.522L576.941 1064.16ZM200.518 200.807L271.298 271.448H271.298L200.518 200.807ZM686.4 200.807L757.18 130.165V130.165L686.4 200.807ZM718.5 232.97L647.72 303.611C666.48 322.407 691.945 332.97 718.5 332.97C745.055 332.97 770.52 322.407 789.28 303.611L718.5 232.97ZM750.6 200.807L821.38 271.448L750.6 200.807ZM1236.48 200.807L1307.26 130.165V130.165L1236.48 200.807ZM1336.37 423L1236.55 429.034C1239.74 481.823 1283.48 523 1336.37 523V423ZM742 1123H642C642 1178.23 686.772 1223 742 1223V1123ZM742 1121.5H842C842 1092.95 829.791 1065.75 808.452 1046.78C787.112 1027.8 758.678 1018.85 730.317 1022.19L742 1121.5ZM129.738 757.648L506.161 1134.81L647.72 993.522L271.298 616.364L129.738 757.648ZM129.738 130.165C-43.2461 303.487 -43.2461 584.325 129.738 757.648L271.298 616.364C176.234 521.115 176.234 366.698 271.298 271.448L129.738 130.165ZM757.18 130.165C583.964 -43.3884 302.953 -43.3884 129.738 130.165L271.298 271.448C366.376 176.184 520.541 176.184 615.62 271.449L757.18 130.165ZM789.28 162.328L757.18 130.165L615.62 271.448L647.72 303.611L789.28 162.328ZM679.82 130.165L647.72 162.328L789.28 303.611L821.38 271.448L679.82 130.165ZM1307.26 130.165C1134.05 -43.3884 853.036 -43.3884 679.82 130.165L821.38 271.448C916.459 176.184 1070.62 176.184 1165.7 271.449L1307.26 130.165ZM1436.19 416.966C1429.88 312.679 1386.87 209.925 1307.26 130.165L1165.7 271.448C1209.5 315.332 1233.08 371.55 1236.55 429.034L1436.19 416.966ZM1336.37 523H2026V323H1336.37V523ZM2026 523C2053.61 523 2076 545.386 2076 573H2276C2276 434.929 2164.07 323 2026 323V523ZM2076 573V873H2276V573H2076ZM2076 873C2076 955.843 2008.84 1023 1926 1023V1223C2119.3 1223 2276 1066.3 2276 873H2076ZM1926 1023H742V1223H1926V1023ZM842 1123V1121.5H642V1123H842ZM506.161 1134.81C573.773 1202.55 665.803 1231.16 753.683 1220.82L730.317 1022.19C700.668 1025.68 670.211 1016.06 647.72 993.523L506.161 1134.81Z" fill="white" mask="url(#path-1-outside-1_113_2)"/>
<path fill-rule="evenodd" clip-rule="evenodd" d="M576.941 1064.16L200.518 687.006C66.494 552.72 66.494 335.093 200.518 200.807C334.665 66.3977 552.253 66.3977 686.4 200.807L718.5 232.97L750.6 200.807C884.747 66.3977 1102.33 66.3977 1236.48 200.807C1298.18 262.629 1331.48 342.114 1336.37 423H2026C2108.84 423 2176 490.157 2176 573V873C2176 1011.07 2064.07 1123 1926 1123H742V1121.5C683.236 1128.42 621.992 1109.3 576.941 1064.16Z" fill="white"/>
<path fill-rule="evenodd" clip-rule="evenodd" d="M695 1121.5C651.844 1116.43 610.026 1097.31 576.941 1064.16L200.518 687.006C66.494 552.72 66.494 335.093 200.518 200.807C332.634 68.4324 545.684 66.4285 680.251 194.795C682.319 196.768 684.369 198.772 686.4 200.807L718.5 232.97L750.6 200.807C752.631 198.772 754.681 196.768 756.749 194.795C891.316 66.4285 1104.37 68.4325 1236.48 200.807C1298.18 262.629 1331.48 342.114 1336.37 423H2026C2108.84 423 2176 490.157 2176 573V873C2176 1011.07 2064.07 1123 1926 1123H742V1121.5C726.392 1123.34 710.608 1123.34 695 1121.5ZM732.492 1222.55C651.211 1226.32 568.355 1197.12 506.161 1134.81L129.738 757.648C-43.2461 584.325 -43.2461 303.487 129.738 130.165C290.584 -30.9946 544.379 -42.5033 718.5 95.639C892.621 -42.5033 1146.42 -30.9946 1307.26 130.165C1362.7 185.708 1400.39 252.403 1420.29 323H2026C2164.07 323 2276 434.929 2276 573V873C2276 1066.3 2119.3 1223 1926 1223H742C738.793 1223 735.622 1222.85 732.492 1222.55Z" fill="white"/>
<g filter="url(#filter0_i_113_2)">
<path fill-rule="evenodd" clip-rule="evenodd" d="M200.518 687.006L576.941 1064.16C655.077 1142.45 781.923 1142.45 860.059 1064.16L1115 808.726V523C1115 412.543 1204.54 323 1315 323H1315.16C1298.49 278.444 1272.26 236.655 1236.48 200.807C1102.34 66.3977 884.747 66.3977 750.6 200.807L718.5 232.97L686.4 200.807C552.253 66.3977 334.665 66.3977 200.518 200.807C66.4943 335.093 66.4943 552.72 200.518 687.006ZM1577 523C1577 578.229 1532.23 623 1477 623H1415V723H1527C1554.61 723 1577 745.386 1577 773V823C1577 878.229 1532.23 923 1477 923H1415V1023C1415 1078.23 1370.23 1123 1315 1123H1265C1237.39 1123 1215 1100.61 1215 1073V523C1215 467.771 1259.77 423 1315 423H1527C1554.61 423 1577 445.386 1577 473V523ZM1676 1023C1676 1078.23 1720.77 1123 1776 1123H1976C2086.46 1123 2176 1033.46 2176 923V523C2176 467.771 2131.23 423 2076 423H2026C1998.39 423 1976 445.386 1976 473V923H1876V523C1876 467.771 1831.23 423 1776 423H1726C1698.39 423 1676 445.386 1676 473V1023ZM377.987 361.711C338.935 322.658 338.935 259.342 377.987 220.289C417.04 181.237 480.356 181.237 519.408 220.289L718.518 419.399L917.628 220.289C956.68 181.237 1020 181.237 1059.05 220.289C1098.1 259.342 1098.1 322.658 1059.05 361.711L819.518 601.242V930.242C819.518 985.47 774.747 1030.24 719.518 1030.24C664.29 1030.24 619.518 985.47 619.518 930.242V603.242L377.987 361.711Z" fill="url(#paint0_radial_113_2)" fill-opacity="0.74"/>
</g>
<defs>
<filter id="filter0_i_113_2" x="100" y="100" width="2076" height="1023" filterUnits="userSpaceOnUse" color-interpolation-filters="sRGB">
<feFlood flood-opacity="0" result="BackgroundImageFix"/>
<feBlend mode="normal" in="SourceGraphic" in2="BackgroundImageFix" result="shape"/>
<feColorMatrix in="SourceAlpha" type="matrix" values="0 0 0 0 0 0 0 0 0 0 0 0 0 0 0 0 0 0 127 0" result="hardAlpha"/>
<feOffset/>
<feGaussianBlur stdDeviation="62"/>
<feComposite in2="hardAlpha" operator="arithmetic" k2="-1" k3="1"/>
<feColorMatrix type="matrix" values="0 0 0 0 0.625 0 0 0 0 0.0833333 0 0 0 0 0.473333 0 0 0 0.53 0"/>
<feBlend mode="normal" in2="shape" result="effect1_innerShadow_113_2"/>
</filter>
<radialGradient id="paint0_radial_113_2" cx="0" cy="0" r="1" gradientUnits="userSpaceOnUse" gradientTransform="translate(1526.5 -1237.5) rotate(105.188) scale(3838.05 7788.66)">
<stop offset="0.44607" stop-color="#FF86B1"/>
<stop offset="0.553413" stop-color="#FF4EF5"/>
<stop offset="0.669285" stop-color="#6D2AC1"/>
</radialGradient>
</defs>
</svg>
